<mxfile host="app.diagrams.net" agent="Mozilla/5.0 (X11; Linux x86_64) AppleWebKit/537.36 (KHTML, like Gecko) Chrome/141.0.0.0 Safari/537.36" version="28.2.5">
  <diagram name="Page-1" id="4rGaWEx-3V2rn0KV_v1x">
    <mxGraphModel dx="949" dy="635" grid="1" gridSize="10" guides="1" tooltips="1" connect="1" arrows="1" fold="1" page="1" pageScale="1" pageWidth="850" pageHeight="1100" math="0" shadow="0">
      <root>
        <mxCell id="0" />
        <mxCell id="1" parent="0" />
        <mxCell id="L0AQGKAI5lK8f6QSXESC-24" style="edgeStyle=orthogonalEdgeStyle;rounded=0;orthogonalLoop=1;jettySize=auto;html=1;exitX=1;exitY=0.5;exitDx=0;exitDy=0;entryX=0;entryY=0.5;entryDx=0;entryDy=0;" edge="1" parent="1" source="L0AQGKAI5lK8f6QSXESC-1" target="L0AQGKAI5lK8f6QSXESC-4">
          <mxGeometry relative="1" as="geometry" />
        </mxCell>
        <mxCell id="L0AQGKAI5lK8f6QSXESC-1" value="Game Server Logs" style="rounded=0;whiteSpace=wrap;html=1;" vertex="1" parent="1">
          <mxGeometry x="20" y="280" width="120" height="60" as="geometry" />
        </mxCell>
        <mxCell id="L0AQGKAI5lK8f6QSXESC-23" style="edgeStyle=orthogonalEdgeStyle;rounded=0;orthogonalLoop=1;jettySize=auto;html=1;exitX=1;exitY=0.5;exitDx=0;exitDy=0;entryX=0;entryY=0.5;entryDx=0;entryDy=0;" edge="1" parent="1" source="L0AQGKAI5lK8f6QSXESC-2" target="L0AQGKAI5lK8f6QSXESC-5">
          <mxGeometry relative="1" as="geometry" />
        </mxCell>
        <mxCell id="L0AQGKAI5lK8f6QSXESC-2" value="System Utilisation" style="rounded=0;whiteSpace=wrap;html=1;" vertex="1" parent="1">
          <mxGeometry x="20" y="420" width="120" height="60" as="geometry" />
        </mxCell>
        <mxCell id="L0AQGKAI5lK8f6QSXESC-3" value="Apache Kafka" style="swimlane;whiteSpace=wrap;html=1;" vertex="1" parent="1">
          <mxGeometry x="200" y="160" width="360" height="400" as="geometry" />
        </mxCell>
        <mxCell id="L0AQGKAI5lK8f6QSXESC-33" style="edgeStyle=orthogonalEdgeStyle;rounded=0;orthogonalLoop=1;jettySize=auto;html=1;exitX=0.5;exitY=0;exitDx=0;exitDy=0;entryX=0;entryY=0.5;entryDx=0;entryDy=0;" edge="1" parent="L0AQGKAI5lK8f6QSXESC-3" source="L0AQGKAI5lK8f6QSXESC-4" target="L0AQGKAI5lK8f6QSXESC-6">
          <mxGeometry relative="1" as="geometry" />
        </mxCell>
        <mxCell id="L0AQGKAI5lK8f6QSXESC-35" style="edgeStyle=orthogonalEdgeStyle;rounded=0;orthogonalLoop=1;jettySize=auto;html=1;exitX=0.5;exitY=1;exitDx=0;exitDy=0;entryX=0;entryY=0.5;entryDx=0;entryDy=0;" edge="1" parent="L0AQGKAI5lK8f6QSXESC-3" source="L0AQGKAI5lK8f6QSXESC-4" target="L0AQGKAI5lK8f6QSXESC-7">
          <mxGeometry relative="1" as="geometry">
            <mxPoint x="180" y="220" as="targetPoint" />
          </mxGeometry>
        </mxCell>
        <mxCell id="L0AQGKAI5lK8f6QSXESC-4" value="server-logs&lt;br&gt;topic" style="rounded=0;whiteSpace=wrap;html=1;" vertex="1" parent="L0AQGKAI5lK8f6QSXESC-3">
          <mxGeometry x="20" y="120" width="120" height="60" as="geometry" />
        </mxCell>
        <mxCell id="L0AQGKAI5lK8f6QSXESC-5" value="system-utilisation&lt;br&gt;topic" style="rounded=0;whiteSpace=wrap;html=1;" vertex="1" parent="L0AQGKAI5lK8f6QSXESC-3">
          <mxGeometry x="20" y="260" width="120" height="60" as="geometry" />
        </mxCell>
        <mxCell id="L0AQGKAI5lK8f6QSXESC-6" value="join-events&lt;br&gt;topic" style="rounded=0;whiteSpace=wrap;html=1;" vertex="1" parent="L0AQGKAI5lK8f6QSXESC-3">
          <mxGeometry x="200" y="60" width="120" height="60" as="geometry" />
        </mxCell>
        <mxCell id="L0AQGKAI5lK8f6QSXESC-7" value="leave-events&lt;br&gt;topic" style="rounded=0;whiteSpace=wrap;html=1;" vertex="1" parent="L0AQGKAI5lK8f6QSXESC-3">
          <mxGeometry x="200" y="180" width="120" height="60" as="geometry" />
        </mxCell>
        <mxCell id="L0AQGKAI5lK8f6QSXESC-36" value="Kafka Streams" style="text;html=1;align=center;verticalAlign=middle;whiteSpace=wrap;rounded=0;" vertex="1" parent="L0AQGKAI5lK8f6QSXESC-3">
          <mxGeometry x="90" y="60" width="90" height="30" as="geometry" />
        </mxCell>
        <mxCell id="L0AQGKAI5lK8f6QSXESC-38" value="Kafka Streams" style="text;html=1;align=center;verticalAlign=middle;whiteSpace=wrap;rounded=0;" vertex="1" parent="L0AQGKAI5lK8f6QSXESC-3">
          <mxGeometry x="90" y="210" width="90" height="30" as="geometry" />
        </mxCell>
        <mxCell id="L0AQGKAI5lK8f6QSXESC-29" style="edgeStyle=orthogonalEdgeStyle;rounded=0;orthogonalLoop=1;jettySize=auto;html=1;exitX=0.5;exitY=0;exitDx=0;exitDy=0;entryX=0.5;entryY=1;entryDx=0;entryDy=0;" edge="1" parent="1" source="L0AQGKAI5lK8f6QSXESC-8" target="L0AQGKAI5lK8f6QSXESC-9">
          <mxGeometry relative="1" as="geometry" />
        </mxCell>
        <mxCell id="L0AQGKAI5lK8f6QSXESC-8" value="Logstash" style="rounded=0;whiteSpace=wrap;html=1;" vertex="1" parent="1">
          <mxGeometry x="640" y="420" width="120" height="60" as="geometry" />
        </mxCell>
        <mxCell id="L0AQGKAI5lK8f6QSXESC-30" style="edgeStyle=orthogonalEdgeStyle;rounded=0;orthogonalLoop=1;jettySize=auto;html=1;exitX=0.5;exitY=0;exitDx=0;exitDy=0;entryX=0.5;entryY=1;entryDx=0;entryDy=0;" edge="1" parent="1" source="L0AQGKAI5lK8f6QSXESC-9" target="L0AQGKAI5lK8f6QSXESC-10">
          <mxGeometry relative="1" as="geometry" />
        </mxCell>
        <mxCell id="L0AQGKAI5lK8f6QSXESC-9" value="Elasticsearch" style="rounded=0;whiteSpace=wrap;html=1;" vertex="1" parent="1">
          <mxGeometry x="640" y="330" width="120" height="60" as="geometry" />
        </mxCell>
        <mxCell id="L0AQGKAI5lK8f6QSXESC-10" value="Kibana" style="rounded=0;whiteSpace=wrap;html=1;" vertex="1" parent="1">
          <mxGeometry x="640" y="240" width="120" height="60" as="geometry" />
        </mxCell>
        <mxCell id="L0AQGKAI5lK8f6QSXESC-21" value="" style="curved=1;endArrow=classic;html=1;rounded=0;entryX=0;entryY=0.5;entryDx=0;entryDy=0;exitX=1;exitY=0.5;exitDx=0;exitDy=0;" edge="1" parent="1" source="L0AQGKAI5lK8f6QSXESC-5" target="L0AQGKAI5lK8f6QSXESC-8">
          <mxGeometry width="50" height="50" relative="1" as="geometry">
            <mxPoint x="430" y="430" as="sourcePoint" />
            <mxPoint x="480" y="380" as="targetPoint" />
            <Array as="points">
              <mxPoint x="500" y="480" />
            </Array>
          </mxGeometry>
        </mxCell>
        <mxCell id="L0AQGKAI5lK8f6QSXESC-22" value="" style="curved=1;endArrow=classic;html=1;rounded=0;entryX=0;entryY=0.5;entryDx=0;entryDy=0;exitX=1;exitY=0.5;exitDx=0;exitDy=0;" edge="1" parent="1" source="L0AQGKAI5lK8f6QSXESC-6" target="L0AQGKAI5lK8f6QSXESC-8">
          <mxGeometry width="50" height="50" relative="1" as="geometry">
            <mxPoint x="430" y="430" as="sourcePoint" />
            <mxPoint x="480" y="380" as="targetPoint" />
            <Array as="points">
              <mxPoint x="620" y="300" />
            </Array>
          </mxGeometry>
        </mxCell>
        <mxCell id="L0AQGKAI5lK8f6QSXESC-26" value="" style="curved=1;endArrow=classic;html=1;rounded=0;entryX=0;entryY=0.5;entryDx=0;entryDy=0;exitX=1;exitY=0.5;exitDx=0;exitDy=0;" edge="1" parent="1" source="L0AQGKAI5lK8f6QSXESC-4" target="L0AQGKAI5lK8f6QSXESC-8">
          <mxGeometry width="50" height="50" relative="1" as="geometry">
            <mxPoint x="460" y="310" as="sourcePoint" />
            <mxPoint x="480" y="350" as="targetPoint" />
            <Array as="points">
              <mxPoint x="610" y="320" />
            </Array>
          </mxGeometry>
        </mxCell>
        <mxCell id="L0AQGKAI5lK8f6QSXESC-27" value="" style="curved=1;endArrow=classic;html=1;rounded=0;entryX=0;entryY=0.5;entryDx=0;entryDy=0;exitX=1;exitY=0.5;exitDx=0;exitDy=0;" edge="1" parent="1" source="L0AQGKAI5lK8f6QSXESC-7" target="L0AQGKAI5lK8f6QSXESC-8">
          <mxGeometry width="50" height="50" relative="1" as="geometry">
            <mxPoint x="430" y="380" as="sourcePoint" />
            <mxPoint x="480" y="330" as="targetPoint" />
            <Array as="points">
              <mxPoint x="610" y="370" />
            </Array>
          </mxGeometry>
        </mxCell>
        <mxCell id="L0AQGKAI5lK8f6QSXESC-31" value="Elastic Stack" style="swimlane;whiteSpace=wrap;html=1;" vertex="1" parent="1">
          <mxGeometry x="600" y="200" width="200" height="320" as="geometry" />
        </mxCell>
        <mxCell id="L0AQGKAI5lK8f6QSXESC-39" value="Integration" style="text;html=1;align=center;verticalAlign=middle;whiteSpace=wrap;rounded=0;" vertex="1" parent="1">
          <mxGeometry x="150" y="280" width="60" height="30" as="geometry" />
        </mxCell>
        <mxCell id="L0AQGKAI5lK8f6QSXESC-40" value="Integration" style="text;html=1;align=center;verticalAlign=middle;whiteSpace=wrap;rounded=0;" vertex="1" parent="1">
          <mxGeometry x="150" y="420" width="60" height="30" as="geometry" />
        </mxCell>
      </root>
    </mxGraphModel>
  </diagram>
</mxfile>
